HIERARCHY
ROOT Hips
{
	OFFSET 0.053599 88.859886 3.107447
	CHANNELS 6 Xposition Yposition Zposition Zrotation Yrotation Xrotation 
	JOINT Spine
	{
		OFFSET -0.000000 8.814246 -2.080107
		CHANNELS 3 Zrotation Yrotation Xrotation
		JOINT Spine1
		{
			OFFSET 0.000000 8.844141 0.000000
			CHANNELS 3 Zrotation Yrotation Xrotation
			JOINT Spine2
			{
				OFFSET -0.000000 11.682268 0.000000
				CHANNELS 3 Zrotation Yrotation Xrotation
				JOINT Spine3
				{
					OFFSET 0.000000 11.746700 0.000000
					CHANNELS 3 Zrotation Yrotation Xrotation
					JOINT Neck
					{
						OFFSET -0.000000 17.658264 -0.000000
						CHANNELS 3 Zrotation Yrotation Xrotation
						JOINT Neck1
						{
							OFFSET -0.000000 5.101515 -0.000000
							CHANNELS 3 Zrotation Yrotation Xrotation
							JOINT Head
							{
								OFFSET 0.000000 5.101515 0.000000
								CHANNELS 3 Zrotation Yrotation Xrotation
								JOINT HeadEnd
								{
									OFFSET 0.000000 11.655085 0.000000
									CHANNELS 3 Zrotation Yrotation Xrotation
									End Site
									{
										OFFSET 0.000000 0.000000 0.000000
									}
								}
							}
						}
					}
					JOINT RightShoulder
					{
						OFFSET -2.625389 11.175210 0.000000
						CHANNELS 3 Zrotation Yrotation Xrotation
						JOINT RightArm
						{
							OFFSET -0.000000 10.434715 -0.000000
							CHANNELS 3 Zrotation Yrotation Xrotation
							JOINT RightForeArm
							{
								OFFSET -0.000000 29.628420 0.000000
								CHANNELS 3 Zrotation Yrotation Xrotation
								JOINT RightHand
								{
									OFFSET -0.000000 22.857611 0.000000
									CHANNELS 3 Zrotation Yrotation Xrotation
									JOINT RightHandThumb1
									{
										OFFSET -2.867323 3.959563 2.944291
										CHANNELS 3 Zrotation Yrotation Xrotation
										JOINT RightHandThumb2
										{
											OFFSET 0.000000 3.350399 0.000000
											CHANNELS 3 Zrotation Yrotation Xrotation
											JOINT RightHandThumb3
											{
												OFFSET 0.000000 3.756509 -0.000000
												CHANNELS 3 Zrotation Yrotation Xrotation
												JOINT RightHandThumb4
												{
													OFFSET 0.000000 3.147345 0.000000
													CHANNELS 3 Zrotation Yrotation Xrotation
													End Site
													{
														OFFSET 0.000000 0.000000 0.000000
													}
												}
											}
										}
									}
									JOINT RightHandIndex1
									{
										OFFSET -0.086752 10.030893 2.345280
										CHANNELS 3 Zrotation Yrotation Xrotation
										JOINT RightHandIndex2
										{
											OFFSET -0.000000 4.061090 0.000000
											CHANNELS 3 Zrotation Yrotation Xrotation
											JOINT RightHandIndex3
											{
												OFFSET -0.000000 3.248873 0.000000
												CHANNELS 3 Zrotation Yrotation Xrotation
												JOINT RightHandIndex4
												{
													OFFSET 0.000000 2.639709 -0.000000
													CHANNELS 3 Zrotation Yrotation Xrotation
													End Site
													{
														OFFSET 0.000000 0.000000 0.000000
													}
												}
											}
										}
									}
									JOINT RightHandMiddle1
									{
										OFFSET 0.104102 9.502952 0.006768
										CHANNELS 3 Zrotation Yrotation Xrotation
										JOINT RightHandMiddle2
										{
											OFFSET 0.000000 4.568727 0.000000
											CHANNELS 3 Zrotation Yrotation Xrotation
											JOINT RightHandMiddle3
											{
												OFFSET 0.000000 3.654981 -0.000000
												CHANNELS 3 Zrotation Yrotation Xrotation
												JOINT RightHandMiddle4
												{
													OFFSET -0.000000 2.741236 -0.000000
													CHANNELS 3 Zrotation Yrotation Xrotation
													End Site
													{
														OFFSET 0.000000 0.000000 0.000000
													}
												}
											}
										}
									}
									JOINT RightHandRing1
									{
										OFFSET 0.086752 8.921708 -2.267442
										CHANNELS 3 Zrotation Yrotation Xrotation
										JOINT RightHandRing2
										{
											OFFSET -0.000000 4.061090 0.000000
											CHANNELS 3 Zrotation Yrotation Xrotation
											JOINT RightHandRing3
											{
												OFFSET 0.000000 3.654981 -0.000000
												CHANNELS 3 Zrotation Yrotation Xrotation
												JOINT RightHandRing4
												{
													OFFSET 0.000000 2.741236 -0.000000
													CHANNELS 3 Zrotation Yrotation Xrotation
													End Site
													{
														OFFSET 0.000000 0.000000 0.000000
													}
												}
											}
										}
									}
									JOINT RightHandPinky1
									{
										OFFSET -0.173504 7.976997 -4.467199
										CHANNELS 3 Zrotation Yrotation Xrotation
										JOINT RightHandPinky2
										{
											OFFSET 0.000000 3.350399 -0.000000
											CHANNELS 3 Zrotation Yrotation Xrotation
											JOINT RightHandPinky3
											{
												OFFSET -0.000000 2.842763 0.000000
												CHANNELS 3 Zrotation Yrotation Xrotation
												JOINT RightHandPinky4
												{
													OFFSET -0.000000 2.639709 0.000000
													CHANNELS 3 Zrotation Yrotation Xrotation
													End Site
													{
														OFFSET 0.000000 0.000000 0.000000
													}
												}
											}
										}
									}
									JOINT RightForeArmEnd
									{
										OFFSET 0.000000 0.000000 0.000000
										CHANNELS 3 Zrotation Yrotation Xrotation
										End Site
										{
											OFFSET 0.000000 0.000000 0.000000
										}
									}
								}
								JOINT RightArmEnd
								{
									OFFSET 0.000000 0.000000 0.000000
									CHANNELS 3 Zrotation Yrotation Xrotation
									End Site
									{
										OFFSET 0.000000 0.000000 0.000000
									}
								}
							}
						}
					}
					JOINT LeftShoulder
					{
						OFFSET 2.625389 11.175210 0.000000
						CHANNELS 3 Zrotation Yrotation Xrotation
						JOINT LeftArm
						{
							OFFSET 0.000000 10.813635 -0.000000
							CHANNELS 3 Zrotation Yrotation Xrotation
							JOINT LeftForeArm
							{
								OFFSET 0.000000 28.724781 0.000000
								CHANNELS 3 Zrotation Yrotation Xrotation
								JOINT LeftHand
								{
									OFFSET 0.644384 25.716167 -0.328871
									CHANNELS 3 Zrotation Yrotation Xrotation
									JOINT LeftHandThumb1
									{
										OFFSET 2.867323 3.959563 2.944291
										CHANNELS 3 Zrotation Yrotation Xrotation
										JOINT LeftHandThumb2
										{
											OFFSET 0.000000 3.350399 0.000000
											CHANNELS 3 Zrotation Yrotation Xrotation
											JOINT LeftHandThumb3
											{
												OFFSET -0.000000 3.756509 0.000000
												CHANNELS 3 Zrotation Yrotation Xrotation
												JOINT LeftHandThumb4
												{
													OFFSET -0.000000 3.100000 0.000000
													CHANNELS 3 Zrotation Yrotation Xrotation
													End Site
													{
														OFFSET 0.000000 0.000000 0.000000
													}
												}
											}
										}
									}
									JOINT LeftHandIndex1
									{
										OFFSET 0.086752 10.030893 2.345280
										CHANNELS 3 Zrotation Yrotation Xrotation
										JOINT LeftHandIndex2
										{
											OFFSET -0.000000 4.061090 -0.000000
											CHANNELS 3 Zrotation Yrotation Xrotation
											JOINT LeftHandIndex3
											{
												OFFSET 0.000000 3.248873 -0.000000
												CHANNELS 3 Zrotation Yrotation Xrotation
												JOINT LeftHandIndex4
												{
													OFFSET 0.000000 2.639709 -0.000000
													CHANNELS 3 Zrotation Yrotation Xrotation
													End Site
													{
														OFFSET 0.000000 0.000000 0.000000
													}
												}
											}
										}
									}
									JOINT LeftHandMiddle1
									{
										OFFSET -0.104102 9.502952 0.006768
										CHANNELS 3 Zrotation Yrotation Xrotation
										JOINT LeftHandMiddle2
										{
											OFFSET -0.000000 4.568727 -0.000000
											CHANNELS 3 Zrotation Yrotation Xrotation
											JOINT LeftHandMiddle3
											{
												OFFSET 0.000000 3.654981 0.000000
												CHANNELS 3 Zrotation Yrotation Xrotation
												JOINT LeftHandMiddle4
												{
													OFFSET 0.000000 2.741236 -0.000000
													CHANNELS 3 Zrotation Yrotation Xrotation
													End Site
													{
														OFFSET 0.000000 0.000000 0.000000
													}
												}
											}
										}
									}
									JOINT LeftHandRing1
									{
										OFFSET -0.086752 8.921708 -2.267442
										CHANNELS 3 Zrotation Yrotation Xrotation
										JOINT LeftHandRing2
										{
											OFFSET 0.000000 4.061090 0.000000
											CHANNELS 3 Zrotation Yrotation Xrotation
											JOINT LeftHandRing3
											{
												OFFSET 0.000000 3.654981 0.000000
												CHANNELS 3 Zrotation Yrotation Xrotation
												JOINT LeftHandRing4
												{
													OFFSET 0.000000 2.741236 0.000000
													CHANNELS 3 Zrotation Yrotation Xrotation
													End Site
													{
														OFFSET 0.000000 0.000000 0.000000
													}
												}
											}
										}
									}
									JOINT LeftHandPinky1
									{
										OFFSET 0.173504 7.976997 -4.467199
										CHANNELS 3 Zrotation Yrotation Xrotation
										JOINT LeftHandPinky2
										{
											OFFSET -0.000000 3.350399 -0.000000
											CHANNELS 3 Zrotation Yrotation Xrotation
											JOINT LeftHandPinky3
											{
												OFFSET 0.000000 2.842763 0.000000
												CHANNELS 3 Zrotation Yrotation Xrotation
												JOINT LeftHandPinky4
												{
													OFFSET -0.000000 2.639709 -0.000000
													CHANNELS 3 Zrotation Yrotation Xrotation
													End Site
													{
														OFFSET 0.000000 0.000000 0.000000
													}
												}
											}
										}
									}
									JOINT LeftForeArmEnd
									{
										OFFSET 0.000000 0.000000 0.000000
										CHANNELS 3 Zrotation Yrotation Xrotation
										End Site
										{
											OFFSET 0.000000 0.000000 0.000000
										}
									}
								}
								JOINT LeftArmEnd
								{
									OFFSET 0.000000 0.000000 0.000000
									CHANNELS 3 Zrotation Yrotation Xrotation
									End Site
									{
										OFFSET 0.000000 0.000000 0.000000
									}
								}
							}
						}
					}
				}
			}
		}
	}
	JOINT RightUpLeg
	{
		OFFSET -11.289943 0.000000 0.000000
		CHANNELS 3 Zrotation Yrotation Xrotation
		JOINT RightLeg
		{
			OFFSET 0.000000 -38.200325 0.000000
			CHANNELS 3 Zrotation Yrotation Xrotation
			JOINT RightFoot
			{
				OFFSET -0.000000 -39.900856 -0.000000
				CHANNELS 3 Zrotation Yrotation Xrotation
				JOINT RightToeBase
				{
					OFFSET 0.000000 0.000000 15.261641
					CHANNELS 3 Zrotation Yrotation Xrotation
					JOINT RightToeBaseEnd
					{
						OFFSET 0.000000 0.000000 7.370709
						CHANNELS 3 Zrotation Yrotation Xrotation
						End Site
						{
							OFFSET 0.000000 0.000000 0.000000
						}
					}
				}
				JOINT RightLegEnd
				{
					OFFSET 0.000000 0.000000 0.000000
					CHANNELS 3 Zrotation Yrotation Xrotation
					End Site
					{
						OFFSET 0.000000 0.000000 0.000000
					}
				}
			}
			JOINT RightUpLegEnd
			{
				OFFSET 0.000000 0.000000 0.000000
				CHANNELS 3 Zrotation Yrotation Xrotation
				End Site
				{
					OFFSET 0.000000 0.000000 0.000000
				}
			}
		}
	}
	JOINT LeftUpLeg
	{
		OFFSET 11.315661 -0.000000 0.000000
		CHANNELS 3 Zrotation Yrotation Xrotation
		JOINT LeftLeg
		{
			OFFSET -0.000000 -38.200325 -0.000000
			CHANNELS 3 Zrotation Yrotation Xrotation
			JOINT LeftFoot
			{
				OFFSET 0.000000 -39.900856 -0.000000
				CHANNELS 3 Zrotation Yrotation Xrotation
				JOINT LeftToeBase
				{
					OFFSET -0.000000 -0.000000 15.261641
					CHANNELS 3 Zrotation Yrotation Xrotation
					JOINT LeftToeBaseEnd
					{
						OFFSET 0.000000 -0.000000 7.539996
						CHANNELS 3 Zrotation Yrotation Xrotation
						End Site
						{
							OFFSET 0.000000 0.000000 0.000000
						}
					}
				}
				JOINT LeftLegEnd
				{
					OFFSET 0.000000 0.000000 0.000000
					CHANNELS 3 Zrotation Yrotation Xrotation
					End Site
					{
						OFFSET 0.000000 0.000000 0.000000
					}
				}
			}
			JOINT LeftUpLegEnd
			{
				OFFSET 0.000000 0.000000 0.000000
				CHANNELS 3 Zrotation Yrotation Xrotation
				End Site
				{
					OFFSET 0.000000 0.000000 0.000000
				}
			}
		}
	}
}
MOTION
Frames: 5
Frame Time: 0.016667
0.467791 88.882423 2.985076 -0.446239 -1.311898 -9.535586 1.086671 0.046537 6.643428 -0.963940 0.220866 2.575080 0.440699 -1.203375 3.740135 -0.991122 0.008347 4.151571 1.305421 1.069361 3.199444 0.403862 1.612603 -3.904036 -0.643550 -0.881101 -19.460867 0.000000 0.000000 0.000000 92.334099 -0.242594 9.734209 66.837936 -25.801250 3.056155 -0.174154 18.653246 36.633709 3.946156 11.080200 -3.976023 19.863716 30.121317 62.017143 -8.440374 -12.295787 -20.609543 -6.306682 -8.087770 -14.268200 0.000000 0.000000 0.000000 12.741644 -11.121613 1.616130 10.199508 0.273285 1.632627 9.954660 -0.156566 1.564502 0.000000 0.000000 0.000000 11.928417 -5.551013 0.502535 8.808646 0.412056 0.637779 9.369464 -0.073594 0.544886 0.000000 0.000000 0.000000 11.916342 2.389369 -0.109941 8.962741 -0.869203 -0.964220 8.993848 0.085739 -0.704246 0.000000 0.000000 0.000000 10.449461 11.015037 -1.682256 8.177477 -1.578396 -2.791547 8.090117 0.346930 -2.343466 0.000000 0.000000 0.000000 0.000000 0.000000 0.000000 0.000000 0.000000 0.000000 -89.090797 0.136615 5.490598 -73.433167 15.753374 -7.166242 -0.723819 -13.743727 52.991123 -1.852086 -19.061296 -12.025089 -20.257936 -30.029409 61.594860 8.806249 12.956536 -21.735767 6.589817 8.693257 -15.230760 0.000000 0.000000 0.000000 -19.398727 -5.419963 1.840056 -12.648307 0.310299 -1.292561 -12.492931 -0.153552 -1.239226 0.000000 0.000000 0.000000 -18.588448 -0.308928 0.390459 -12.480427 0.409668 -0.574231 -12.534470 -0.078391 -0.464038 0.000000 0.000000 0.000000 -21.053602 7.852333 -0.783110 -14.046434 -0.867521 0.912713 -14.100424 0.093406 0.704224 0.000000 0.000000 0.000000 -22.648108 16.408030 -2.805963 -14.671083 -1.562322 2.903645 -14.314321 0.416191 2.529140 0.000000 0.000000 0.000000 0.000000 0.000000 0.000000 0.000000 0.000000 0.000000 -0.576804 -9.230275 13.577215 -0.062200 -0.650922 5.098976 -2.502197 -8.048214 18.317093 -0.794935 0.784052 -18.902988 0.000000 0.000000 0.000000 0.000000 0.000000 0.000000 0.000000 0.000000 0.000000 -1.467277 -6.002949 8.349463 0.065986 0.310811 9.608266 3.956548 -0.303798 17.263803 0.364138 -0.393891 -20.915123 0.000000 0.000000 0.000000 0.000000 0.000000 0.000000 0.000000 0.000000 0.000000 
0.478062 88.883377 2.984159 -0.440420 -1.316395 -9.575420 1.096977 0.048829 6.628522 -0.975276 0.224467 2.580280 0.435532 -1.163141 3.749656 -1.029811 0.027595 4.168369 1.242685 1.037309 3.223003 0.381744 1.527233 -3.910156 -0.623566 -0.882170 -19.507351 0.000000 0.000000 0.000000 92.276428 -0.232203 9.713066 66.991096 -25.442081 2.929214 -0.192901 18.824286 37.645348 3.613114 11.290900 -3.852774 19.865671 30.120819 62.009357 -8.442888 -12.308566 -20.627438 -6.309517 -8.093280 -14.278334 0.000000 0.000000 0.000000 12.694199 -11.122870 1.782954 10.210132 0.268624 1.649681 9.960225 -0.161451 1.579855 0.000000 0.000000 0.000000 11.889719 -5.549677 0.619157 8.829065 0.409988 0.643724 9.397501 -0.075673 0.550160 0.000000 0.000000 0.000000 11.854118 2.403215 -0.083854 8.991074 -0.867550 -0.970878 9.028838 0.087290 -0.709422 0.000000 0.000000 0.000000 10.339774 11.041022 -1.733754 8.195167 -1.572850 -2.809964 8.121518 0.351519 -2.355728 0.000000 0.000000 0.000000 0.000000 0.000000 0.000000 0.000000 0.000000 0.000000 -89.041206 0.134376 5.420510 -73.492256 15.500542 -7.287053 -0.707150 -13.905800 53.704071 -1.932506 -19.049507 -11.816760 -20.302830 -30.019199 61.553394 8.842431 13.047314 -21.869600 6.623005 8.752362 -15.323356 0.000000 0.000000 0.000000 -19.773067 -5.363958 1.886792 -12.897630 0.306915 -1.307901 -12.737854 -0.157405 -1.255567 0.000000 0.000000 0.000000 -18.946508 -0.251459 0.433981 -12.729201 0.408043 -0.581557 -12.786359 -0.080109 -0.470680 0.000000 0.000000 0.000000 -21.372410 7.910076 -0.760241 -14.288136 -0.865702 0.921340 -14.350559 0.095461 0.710828 0.000000 0.000000 0.000000 -22.924797 16.461229 -2.803692 -14.888902 -1.559704 2.924522 -14.533191 0.421682 2.544920 0.000000 0.000000 0.000000 0.000000 0.000000 0.000000 0.000000 0.000000 0.000000 -0.608286 -9.223842 13.617507 -0.062664 -0.651186 5.087819 -2.489793 -8.005157 18.323954 -0.796384 0.784281 -18.897610 0.000000 0.000000 0.000000 0.000000 0.000000 0.000000 0.000000 0.000000 0.000000 -1.474335 -6.026578 8.378165 0.067234 0.311413 9.641351 3.963504 -0.328847 17.273989 0.359928 -0.391641 -20.942709 0.000000 0.000000 0.000000 0.000000 0.000000 0.000000 0.000000 0.000000 0.000000 
0.486956 88.884087 2.984342 -0.437933 -1.320185 -9.617234 1.110044 0.051342 6.617865 -0.989854 0.229604 2.585937 0.437084 -1.126202 3.752335 -1.064702 0.048032 4.179152 1.182084 1.008180 3.247804 0.362377 1.447055 -3.914552 -0.607582 -0.887056 -19.546688 0.000000 0.000000 0.000000 92.224602 -0.220567 9.699559 67.133255 -25.159252 2.833989 -0.207676 18.949759 38.451248 3.333031 11.442309 -3.772914 19.875078 30.117447 61.995171 -8.453732 -12.333154 -20.665905 -6.318729 -8.107223 -14.303445 0.000000 0.000000 0.000000 12.706226 -11.130319 1.911402 10.247175 0.264033 1.665257 9.992149 -0.166418 1.593696 0.000000 0.000000 0.000000 11.902465 -5.556250 0.704728 8.874882 0.407915 0.648818 9.448919 -0.077777 0.554857 0.000000 0.000000 0.000000 11.836729 2.408983 -0.065573 9.045815 -0.865559 -0.976434 9.088208 0.088880 -0.713620 0.000000 0.000000 0.000000 10.265091 11.060889 -1.771505 8.234558 -1.566815 -2.826566 8.173415 0.356256 -2.365924 0.000000 0.000000 0.000000 0.000000 0.000000 0.000000 0.000000 0.000000 0.000000 -88.999405 0.132649 5.360735 -73.531174 15.278561 -7.375256 -0.690501 -14.045531 54.339012 -1.966086 -18.976128 -11.650741 -20.356831 -30.006447 61.503178 8.887102 13.157079 -22.030315 6.663198 8.823823 -15.434864 0.000000 0.000000 0.000000 -20.197824 -5.298870 1.918854 -13.175626 0.301725 -1.327943 -13.011643 -0.163113 -1.275688 0.000000 0.000000 0.000000 -19.358913 -0.184997 0.469084 -13.005831 0.405602 -0.590652 -13.066116 -0.082461 -0.478725 0.000000 0.000000 0.000000 -21.751440 7.977855 -0.734879 -14.564668 -0.862823 0.932392 -14.635392 0.098382 0.719394 0.000000 0.000000 0.000000 -23.256397 16.524183 -2.787214 -15.142125 -1.553766 2.952772 -14.789488 0.429742 2.565974 0.000000 0.000000 0.000000 0.000000 0.000000 0.000000 0.000000 0.000000 0.000000 -0.631152 -9.218062 13.663618 -0.062987 -0.651508 5.068039 -2.481777 -7.967957 18.334417 -0.797445 0.783816 -18.891901 0.000000 0.000000 0.000000 0.000000 0.000000 0.000000 0.000000 0.000000 0.000000 -1.476560 -6.050019 8.414809 0.068599 0.312487 9.665121 3.972480 -0.350687 17.279572 0.356285 -0.389768 -20.965631 0.000000 0.000000 0.000000 0.000000 0.000000 0.000000 0.000000 0.000000 0.000000 
0.493689 88.884537 2.985394 -0.439292 -1.322241 -9.661111 1.125862 0.053798 6.612757 -1.008266 0.236764 2.591547 0.447119 -1.092572 3.751135 -1.096308 0.069554 4.182301 1.130685 0.976819 3.280927 0.347176 1.369928 -3.913746 -0.594686 -0.897518 -19.577744 0.000000 0.000000 0.000000 92.185638 -0.207631 9.699166 67.246040 -24.971060 2.787897 -0.216235 19.025610 38.993160 3.120679 11.545692 -3.729502 19.891804 30.111311 61.974701 -8.473418 -12.368594 -20.723919 -6.334612 -8.129642 -14.343743 0.000000 0.000000 0.000000 12.777984 -11.142376 2.006215 10.302555 0.259465 1.681350 10.041868 -0.171584 1.607965 0.000000 0.000000 0.000000 11.969395 -5.570228 0.763011 8.940607 0.405752 0.653659 9.516063 -0.079944 0.559553 0.000000 0.000000 0.000000 11.871732 2.404746 -0.050255 9.124800 -0.863083 -0.981433 9.167927 0.090522 -0.717083 0.000000 0.000000 0.000000 10.238719 11.071074 -1.787698 8.298096 -1.560315 -2.841677 8.247636 0.360876 -2.373600 0.000000 0.000000 0.000000 0.000000 0.000000 0.000000 0.000000 0.000000 0.000000 -88.972115 0.132797 5.315294 -73.522995 15.135497 -7.407617 -0.670988 -14.159112 54.838154 -1.939148 -18.809355 -11.540127 -20.422148 -29.990725 61.442280 8.942492 13.290580 -22.224049 6.711819 8.910079 -15.570223 0.000000 0.000000 0.000000 -20.687279 -5.222123 1.942948 -13.491056 0.294818 -1.352905 -13.323938 -0.170650 -1.299231 0.000000 0.000000 0.000000 -19.842236 -0.106841 0.502996 -13.318477 0.402343 -0.601426 -13.383183 -0.085424 -0.488156 0.000000 0.000000 0.000000 -22.201279 8.058003 -0.696876 -14.884699 -0.859098 0.945388 -14.963125 0.101982 0.729700 0.000000 0.000000 0.000000 -23.651823 16.598944 -2.740914 -15.436951 -1.545258 2.986803 -15.090697 0.439309 2.590496 0.000000 0.000000 0.000000 0.000000 0.000000 0.000000 0.000000 0.000000 0.000000 -0.645304 -9.213593 13.718818 -0.063187 -0.651971 5.037227 -2.477353 -7.936637 18.348263 -0.797764 0.782662 -18.886288 0.000000 0.000000 0.000000 0.000000 0.000000 0.000000 0.000000 0.000000 0.000000 -1.473133 -6.074987 8.463000 0.070112 0.314394 9.673527 3.982221 -0.366517 17.279499 0.353829 -0.388597 -20.981836 0.000000 0.000000 0.000000 0.000000 0.000000 0.000000 0.000000 0.000000 0.000000 
0.497937 88.884018 2.987927 -0.441045 -1.322837 -9.707582 1.139120 0.056175 6.611408 -1.025836 0.244691 2.595289 0.460674 -1.063255 3.749481 -1.123026 0.089066 4.179698 1.085150 0.946410 3.330881 0.336474 1.298850 -3.906865 -0.584168 -0.911276 -19.603357 0.000000 0.000000 0.000000 92.164062 -0.192700 9.709508 67.314484 -24.879063 2.806360 -0.216894 19.069477 39.252106 2.992236 11.592133 -3.736556 19.914524 30.103657 61.950665 -8.497745 -12.412454 -20.794668 -6.355047 -8.159040 -14.394375 0.000000 0.000000 0.000000 12.894608 -11.159962 2.070546 10.370134 0.256487 1.695227 10.102519 -0.175370 1.619994 0.000000 0.000000 0.000000 12.078355 -5.589995 0.795664 9.016824 0.404210 0.657233 9.590778 -0.081661 0.563436 0.000000 0.000000 0.000000 11.953560 2.392408 -0.040535 9.216593 -0.861130 -0.984820 9.255116 0.091524 -0.719153 0.000000 0.000000 0.000000 10.264645 11.072774 -1.791730 8.374850 -1.556087 -2.852364 8.332970 0.363092 -2.376355 0.000000 0.000000 0.000000 0.000000 0.000000 0.000000 0.000000 0.000000 0.000000 -88.963036 0.136928 5.283351 -73.468094 15.066423 -7.375380 -0.652864 -14.245013 55.145458 -1.868465 -18.544453 -11.488390 -20.488346 -29.974144 61.380257 9.001554 13.425600 -22.420370 6.761532 8.996322 -15.708413 0.000000 0.000000 0.000000 -21.173174 -5.143903 1.951588 -13.806210 0.287882 -1.379419 -13.637403 -0.178138 -1.323132 0.000000 0.000000 0.000000 -20.329411 -0.027471 0.525664 -13.627496 0.399057 -0.612422 -13.699380 -0.088318 -0.497731 0.000000 0.000000 0.000000 -22.653063 8.137403 -0.660941 -15.204526 -0.855515 0.958382 -15.288502 0.105377 0.740333 0.000000 0.000000 0.000000 -24.045536 16.671991 -2.683642 -15.731621 -1.536748 3.021393 -15.393634 0.447473 2.614610 0.000000 0.000000 0.000000 0.000000 0.000000 0.000000 0.000000 0.000000 0.000000 -0.654888 -9.208443 13.782379 -0.063337 -0.653082 4.997511 -2.476927 -7.907421 18.360600 -0.797392 0.781002 -18.878344 0.000000 0.000000 0.000000 0.000000 0.000000 0.000000 0.000000 0.000000 0.000000 -1.465944 -6.097875 8.523893 0.071789 0.317183 9.671414 3.991464 -0.373856 17.269365 0.352207 -0.388230 -20.990425 0.000000 0.000000 0.000000 0.000000 0.000000 0.000000 0.000000 0.000000 0.000000 
